<?xml version="1.0" encoding="utf-8"?>
<!-- Generator: Adobe Illustrator 24.1.1, SVG Export Plug-In . SVG Version: 6.00 Build 0)  -->
<svg version="1.1" xmlns="http://www.w3.org/2000/svg" xmlns:xlink="http://www.w3.org/1999/xlink" x="0px" y="0px"
	 viewBox="0 0 2500 916.7" style="enable-background:new 0 0 2500 916.7;" xml:space="preserve">
<style type="text/css">
	.st0{display:none;fill:url(#SVGID_1_);stroke:#FFFFFF;stroke-width:2;stroke-miterlimit:10;}
	.st1{display:none;fill:#F02710;}
	.st2{fill:#F02710;}
	.st3{fill:#840C03;}
	.st4{display:none;}
	.st5{display:inline;}
	.st6{fill:#FFFFFF;}
</style>
<g id="Layer_2">
	<radialGradient id="SVGID_1_" cx="1250.4076" cy="549.5414" r="1254.7261" gradientUnits="userSpaceOnUse">
		<stop  offset="0" style="stop-color:#3D3D3D"/>
		<stop  offset="5.637565e-02" style="stop-color:#383838"/>
		<stop  offset="0.4369" style="stop-color:#1A1A1A"/>
		<stop  offset="0.7647" style="stop-color:#080808"/>
		<stop  offset="1" style="stop-color:#020202"/>
	</radialGradient>
	<rect x="-4.3" y="-705.2" class="st0" width="2509.5" height="2509.5"/>
	<path class="st1" d="M1247,691.1c432.8,0,786.4,107.8,809,243.5c0.8-4.6,1.2-9.2,1.2-13.8c0-142.1-362.7-257.4-810.2-257.4
		S436.8,778.6,436.8,920.8c0,4.6,0.4,9.3,1.2,13.8C460.6,798.9,814.1,691.1,1247,691.1z"/>
	<path d="M864.9,562.1c-10.8,11.4-18.8,17.4-23.9,18.1c-5.9,0.8-6.1-9.9-0.6-32.1c6.3-27.7,14.3-55,23.8-82
		c9.5-26.9,17.4-55,23.8-84.3c0.8-1.6-0.8-3.2-4.8-4.8c-4-1.6-9.1-3.2-15.4-4.8c14.3-11.9,19.8-26.1,16.6-42.8
		c-3.2-13.5-12.9-23.3-29.1-29.7c-16.2-6.3-34.3-9.5-54-9.5c-42-0.8-79.8,10.1-113.4,32.7c-33.7,22.6-61.4,50.3-83.1,83.1
		c-21.8,32.9-37,67.5-45.7,103.9c-8.7,36.4-9.1,68.1-1.2,95c3.2,11.1,9.9,20.2,20.2,27.3c10.3,7.1,24.1,10.7,41.6,10.7
		c18.2,0,37.6-6.7,58.2-20.2c20.6-13.5,39.6-28.5,57-45.1c-0.8,7.1-1.4,13.9-1.8,20.2c-0.4,6.3,0.2,12.3,1.8,17.8
		c1.6,6.3,5.7,11.9,12.5,16.6c6.7,4.8,14.6,8.1,23.8,10.1c9.1,2,18.6,2.2,28.5,0.6c9.9-1.6,18.8-5.5,26.7-11.9
		c15-10.3,28.3-20.6,39.8-30.9c1.9-1.7,3.8-3.5,5.7-5.3c-1.2-1.9-2.2-3.9-3.2-5.9C864.4,580.4,863.2,571.4,864.9,562.1z
		 M820.2,336.7c-3.2,11.9-10.5,22.2-22,30.9c-11.5,8.7-27.5,15.1-48.1,19c7.9,7.9,19,11.9,33.3,11.9c-6.3,19.8-13.1,41.2-20.2,64.1
		c-7.1,23-13.5,45.5-19,67.7c-7.1,8.7-15.3,17.2-24.3,25.5c-9.1,8.3-17.8,15.4-26.1,21.4c-8.3,5.9-15.8,9.5-22.6,10.7
		c-6.7,1.2-10.5-1.4-11.3-7.7c-2.4-12.7-0.4-32.5,5.9-59.4c6.3-26.9,15.6-54.4,27.9-82.5c12.3-28.1,26.5-53.8,42.8-77.2
		c16.2-23.3,33.1-37.4,50.5-42.2c12.7-4,21.6-3.2,26.7,2.4C818.8,326.8,821,332,820.2,336.7z M1111,345.7c0.8-15-2.8-23.5-10.7-25.5
		c-7.9-2-17.6-0.2-29.1,5.3c-11.5,5.5-23.2,13.3-35,23.2c-11.9,9.9-20.6,18.8-26.1,26.7c-8.7,11.1-11.7,21-8.9,29.7
		c2.8,8.7,8.9,16.8,18.4,24.3c9.5,7.5,21,15.1,34.4,22.6c13.5,7.5,26.5,15.6,39.2,24.3c12.7,8.7,23.8,18.6,33.3,29.7
		c9.5,11.1,14.6,23.8,15.4,38c2.4,27.7-8.9,51.3-33.8,70.7c-24.9,19.4-60.4,29.1-106.3,29.1c-21.4,0-40.8-2.2-58.2-6.5
		c-17.4-4.3-32.1-10.7-43.9-19c-11.9-8.3-20.4-18-25.5-29.1c-5.1-11.1-5.7-22.6-1.8-34.4c3.2-11.9,10.5-21.8,22-29.7
		c11.5-7.9,24.5-12.9,39.2-14.8c14.6-2,29.7-0.6,45.1,4.2c15.4,4.8,28.7,13.9,39.8,27.3c-20.6,4-37.4,10.1-50.5,18.4
		c-13.1,8.3-17.6,18.4-13.7,30.3c3.2,8.7,8.5,15.1,16,19c7.5,4,14.4,5.9,20.8,5.9c13.5,0.8,24.9-2,34.4-8.3
		c9.5-6.3,16.2-13.1,20.2-20.2c7.9-10.3,9.1-20.2,3.6-29.7c-5.5-9.5-14.3-19-26.1-28.5c-11.9-9.5-25.9-19.2-42.2-29.1
		c-16.2-9.9-31.1-20.2-44.5-30.9c-13.5-10.7-24.2-22-32.1-33.8c-7.9-11.9-9.9-24.9-5.9-39.2c8.7-30.9,27.1-56,55.2-75.4
		c28.1-19.4,64.3-29.5,108.7-30.3c39.6-0.8,70.1,4.6,91.5,16c21.4,11.5,35.2,28.3,41.6,50.5c4.8,18.2,1.8,34.4-8.9,48.7
		c-10.7,14.3-24.6,25.4-41.6,33.3c-17,7.9-35.2,11.1-54.6,9.5c-19.4-1.6-35.4-9.5-48.1-23.8c20.6-4,36.6-14,48.1-30.3
		C1101.6,377.6,1108.6,361.6,1111,345.7z M570.6,376.3c-13.1,48.7-26.3,97-39.8,144.9c-13.5,47.9-26.1,92.6-38,134.2
		c-11.9,41.6-21.4,75.4-28.5,101.6c-20.6-2.4-39.6-6.1-57-11.3c-17.4-5.2-31.7-12.1-42.8-20.8c-11.1-8.7-18.6-19.4-22.6-32.1
		c-4-12.7-2.4-28.1,4.8-46.3c7.9-20.6,18.2-49.3,30.9-86.1c12.7-36.8,26.7-76.6,42.2-119.4c15.4-42.8,31.1-86.1,46.9-130.1
		c15.8-43.9,30.5-83.3,43.9-118.2c-59.4,11.9-109.3,28.3-149.7,49.3c-40.4,21-71.9,43.6-94.4,67.7c-22.6,24.2-36.8,47.9-42.8,71.3
		c-5.9,23.4-4.2,42.6,5.3,57.6c-34.8-3.2-62.5-10.3-83.1-21.4c-20.6-11.1-35.6-23.8-45.1-38C91.3,365,87.2,350,88.3,334.2
		c1.2-15.8,6.5-29.7,16-41.6c19.8-24.5,52.1-49.5,96.8-74.8c44.7-25.3,98.4-46.9,160.9-64.7c62.5-17.8,131.8-29.3,207.9-34.4
		c76-5.1,155.6-0.2,238.7,14.8c40.4,8.7,68.5,19,84.3,30.9c15.8,11.9,24.9,23.8,27.3,35.6c-69.7-11.9-133-19-190-21.4
		c-57-2.4-109.3-0.8-156.8,4.8c13.5,8.7,22.4,18.6,26.7,29.7c4.3,11.1,5.7,21.4,4.2,30.9C594.9,283.5,583.6,327.6,570.6,376.3z
		 M2135.6,269.2c-135.9,4.1-244.7,115.6-244.7,252.5c0,139.9,112.7,252.6,252.6,252.6c136.9,0,248.3-108.9,252.5-244.7
		C2400.3,384.4,2280.7,264.8,2135.6,269.2z M2147.6,645.5c-78.9,0-146.5-48.3-174.1-116.7c42.7,36.2,103.4,58.9,170.9,58.9
		c72.8,0,137.8-26.4,180.7-67.8C2299.9,592.9,2229.9,645.5,2147.6,645.5z M1840.5,334.6c0.8-15-2.8-23.5-10.7-25.5
		c-7.9-2-17.6-0.2-29.1,5.3c-11.5,5.5-23.2,13.3-35,23.2c-11.9,9.9-20.6,18.8-26.1,26.7c-8.7,11.1-11.7,21-8.9,29.7
		c2.8,8.7,8.9,16.8,18.4,24.3c9.5,7.5,21,15.1,34.4,22.6c13.5,7.5,26.5,15.6,39.2,24.3c12.7,8.7,23.8,18.6,33.3,29.7
		c9.5,11.1,14.6,23.8,15.4,38c2.4,27.7-8.9,51.3-33.9,70.7c-24.9,19.4-60.4,29.1-106.3,29.1c-21.4,0-40.8-2.2-58.2-6.5
		c-17.4-4.3-32.1-10.7-43.9-19c-11.9-8.3-20.4-18-25.5-29.1c-5.1-11.1-5.7-22.6-1.8-34.4c3.2-11.9,10.5-21.8,22-29.7
		c11.5-7.9,24.5-12.9,39.2-14.8c14.6-2,29.7-0.6,45.1,4.2c15.4,4.8,28.7,13.9,39.8,27.3c-20.6,4-37.4,10.1-50.5,18.4
		c-13.1,8.3-17.6,18.4-13.7,30.3c3.2,8.7,8.5,15.1,16,19c7.5,4,14.4,5.9,20.8,5.9c13.5,0.8,24.9-2,34.4-8.3
		c9.5-6.3,16.2-13.1,20.2-20.2c7.9-10.3,9.1-20.2,3.6-29.7c-5.5-9.5-14.3-19-26.1-28.5c-11.9-9.5-25.9-19.2-42.2-29.1
		c-16.2-9.9-31.1-20.2-44.5-30.9c-13.5-10.7-24.2-22-32.1-33.8c-7.9-11.9-9.9-24.9-5.9-39.2c8.7-30.9,27.1-56,55.2-75.4
		c28.1-19.4,64.3-29.5,108.7-30.3c39.6-0.8,70.1,4.6,91.5,16c21.4,11.5,35.2,28.3,41.6,50.5c4.8,18.2,1.8,34.4-8.9,48.7
		c-10.7,14.3-24.6,25.4-41.6,33.3c-17,7.9-35.2,11.1-54.6,9.5c-19.4-1.6-35.4-9.5-48.1-23.8c20.6-4,36.6-14,48.1-30.3
		C1831.2,366.5,1838.1,350.5,1840.5,334.6z M1301.5,567.2c2.1,5.6,4.5,10.9,7.1,15.7c-6.4,6.3-12.8,12.4-19.2,18.2
		c-11.5,10.3-24.8,20.6-39.8,30.9c-7.9,6.3-17.4,9.9-28.5,10.7c-11.1,0.8-21.4-0.4-30.9-3.6c-9.5-3.2-17.6-8.3-24.3-15.4
		c-6.7-7.1-9.7-15.4-8.9-24.9c1.6-18.2,4.4-37.2,8.3-57c4-19.8,9.1-41.2,15.4-64.1c11.1-38.8,22.8-78.4,35-118.8
		c12.3-40.4,23.9-77.2,35-110.5h-8.3c-15.8,0-24.2-4-24.9-11.9c-0.8-7.9,9.1-12.3,29.7-13.1h11.9c7.1-22.2,14.3-41.2,21.4-57
		c4-9.5,11.1-15.8,21.4-19c10.3-3.2,20.6-4.5,30.9-4.2c10.3,0.4,19.2,2.2,26.7,5.3c7.5,3.2,10.9,6.3,10.1,9.5l-19,65.3h59.4
		c8.7-0.8,15,0,19,2.4c3.9,2.4,5.5,5.2,4.8,8.3c-0.8,3.2-3.6,6.1-8.3,8.9c-4.8,2.8-11.9,4.6-21.4,5.3h-60.6l-84.3,300.5
		c-5.5,22.2-5.2,32.9,1.2,32.1c6.3-0.8,16.4-8.7,30.3-23.8c1.9-2.1,4.1-3.6,6.5-4.6C1298.3,557.5,1299.8,562.4,1301.5,567.2z
		 M1567.2,526.8c-17.4,15.8-35,29.5-52.9,41c-17.8,11.5-34.4,19.2-49.9,23.2c-15.4,4-28.9,3.4-40.4-1.8c-11.5-5.1-19.6-16-24.3-32.7
		c-4.8-18.2-4-41.2,2.4-68.9c22.2,5.5,46.9,5,74.2-1.8c27.3-6.7,52.4-17.6,75.4-32.7c23-15,41.8-32.7,56.4-52.9
		c14.6-20.2,20.4-40.6,17.2-61.2c-1.6-7.9-6.7-18-15.4-30.3c-8.7-12.3-26.5-20.4-53.5-24.3c-42.8-5.5-81.8,0.8-117,19
		c-35.2,18.2-64.3,42.2-87.3,71.9c-23,29.7-38.8,62.2-47.5,97.4c-8.7,35.2-7.9,66.7,2.4,94.4c7.9,21.4,19.8,37.2,35.6,47.5
		c15.8,10.3,32.3,16.8,49.3,19.6c17,2.8,33.4,3,49.3,0.6c15.8-2.4,28.1-5.9,36.8-10.7c35.6-16.6,67.3-37.2,95-61.8
		C1600.8,537.9,1583,512.5,1567.2,526.8z M1428.2,414.5c7.9-17,17-32.7,27.3-46.9c10.3-14.3,21-26.5,32.1-36.8
		c11.1-10.3,22.6-17.4,34.4-21.4c12.7-4,20.4-2.6,23.2,4.2c2.8,6.7,4.2,12.9,4.2,18.4c0.8,11.9-2.8,24.6-10.7,38
		c-7.9,13.5-18.8,26.3-32.7,38.6c-13.9,12.3-29.5,23.6-46.9,33.9c-17.4,10.3-34.4,17.8-51.1,22.6
		C1413.6,448.4,1420.3,431.6,1428.2,414.5z"/>
	<path class="st2" d="M2316.9,492.4c-12.7-16.1-30.8-19.6-46.4-4.1c-13.8,13.8-21.7,31-29.7,48.2c-9.2,19.8-16.4,40.4-26,60
		c-8.5,17.4-19.2,33-33.8,45.8c7.6-1.4,15.3-3.2,22.8-5.3c35.1-11.6,51.5-31.6,74-57.9c-6.4,12.8-10.3,19.3-20.3,29.6
		c-6.5,6.7-16.1,13.3-16.1,13.3s11-1.9,18.1-3.8c13.4-3.6,23.3-7.1,33.6-15.9c15.9-13.6,27.9-30.2,33.5-50.6
		C2332.2,530.7,2330.8,510.1,2316.9,492.4z"/>
	<path class="st3" d="M2203.8,637c10.8-3.1,21.1-6.8,29.9-10.8c1.5-0.7,2.9-1.5,4.2-2.4l0,0c1.1-0.7,2.3-1.4,3.5-2c0,0,0,0,0,0
		s10-6.5,16.4-13.3c12.5-13.5,13.5-16.4,18.8-27.1c0.2-0.4-0.3-0.7-0.6-0.4C2254.4,606.5,2237.9,625.8,2203.8,637z"/>
</g>
<g id="icon" class="st4">
	<g class="st5">
		<path class="st6" d="M1518.8,720.2c-10,10.6-17.4,16.2-22.2,16.8c-5.5,0.7-5.7-9.2-0.6-29.8c5.9-25.7,13.2-51,22-76
			c8.8-25,16.1-51,22-78.2c0.7-1.5-0.7-2.9-4.4-4.4c-3.7-1.5-8.5-2.9-14.3-4.4c13.2-11,18.4-24.2,15.4-39.7
			c-2.9-12.5-11.9-21.7-27-27.5c-15.1-5.9-31.8-8.8-50.1-8.8c-38.9-0.7-74,9.4-105.2,30.3c-31.2,20.9-56.9,46.7-77.1,77.1
			c-20.2,30.5-34.3,62.6-42.4,96.4c-8.1,33.8-8.4,63.2-1.1,88.2c2.9,10.3,9.2,18.7,18.7,25.3c9.5,6.6,22.4,9.9,38.6,9.9
			c16.9,0,34.9-6.2,54-18.7c19.1-12.5,36.7-26.4,52.9-41.9c-0.7,6.6-1.3,12.9-1.7,18.7c-0.4,5.9,0.2,11.4,1.7,16.5
			c1.5,5.9,5.3,11,11.6,15.4c6.2,4.4,13.6,7.5,22,9.4c8.4,1.8,17.3,2,26.4,0.6c9.2-1.5,17.4-5.1,24.8-11
			c13.9-9.5,26.3-19.1,36.9-28.6c1.8-1.6,3.6-3.2,5.3-4.9c-1.1-1.8-2.1-3.6-3-5.5C1518.4,737.2,1517.3,728.8,1518.8,720.2z
			 M1477.4,511.1c-2.9,11-9.7,20.6-20.4,28.6c-10.7,8.1-25.5,14-44.6,17.6c7.3,7.4,17.6,11,30.9,11c-5.9,18.4-12.1,38.2-18.7,59.5
			c-6.6,21.3-12.5,42.3-17.6,62.8c-6.6,8.1-14.2,16-22.6,23.7c-8.5,7.7-16.5,14.3-24.2,19.8c-7.7,5.5-14.7,8.8-20.9,9.9
			c-6.3,1.1-9.7-1.3-10.5-7.2c-2.2-11.7-0.4-30.1,5.5-55.1c5.9-25,14.5-50.5,25.9-76.6c11.4-26.1,24.6-49.9,39.7-71.6
			c15-21.7,30.7-34.7,46.8-39.1c11.7-3.7,20-2.9,24.8,2.2C1476.1,502,1478.1,506.7,1477.4,511.1z M1747.1,519.5
			c0.7-13.9-2.6-21.8-9.9-23.7c-7.4-1.8-16.4-0.2-27,5c-10.7,5.1-21.5,12.3-32.5,21.5c-11,9.2-19.1,17.5-24.2,24.8
			c-8.1,10.3-10.8,19.5-8.3,27.5c2.6,8.1,8.3,15.6,17.1,22.6c8.8,7,19.5,14,32,20.9c12.5,7,24.6,14.5,36.4,22.6
			c11.7,8.1,22,17.3,30.9,27.5c8.8,10.3,13.6,22,14.3,35.3c2.2,25.7-8.3,47.6-31.4,65.6c-23.1,18-56,27-98.6,27
			c-19.8,0-37.8-2-54-6.1c-16.2-4-29.7-9.9-40.8-17.6c-11-7.7-18.9-16.7-23.7-27c-4.8-10.3-5.3-20.9-1.7-32
			c2.9-11,9.7-20.2,20.4-27.5c10.6-7.3,22.8-11.9,36.4-13.8c13.6-1.8,27.5-0.6,41.9,3.9c14.3,4.4,26.6,12.9,36.9,25.3
			c-19.1,3.7-34.7,9.4-46.8,17.1c-12.1,7.7-16.4,17.1-12.7,28.1c2.9,8.1,7.9,14,14.9,17.6c7,3.7,13.4,5.5,19.3,5.5
			c12.5,0.7,23.1-1.8,32-7.7c8.8-5.9,15-12.1,18.7-18.7c7.3-9.5,8.4-18.7,3.3-27.5c-5.1-8.8-13.2-17.6-24.2-26.4
			c-11-8.8-24.1-17.8-39.1-27c-15.1-9.2-28.8-18.7-41.3-28.6c-12.5-9.9-22.4-20.4-29.8-31.4c-7.4-11-9.2-23.1-5.5-36.4
			c8.1-28.6,25.2-52,51.2-70c26.1-18,59.7-27.4,100.8-28.1c36.7-0.7,65,4.2,84.8,14.9c19.8,10.7,32.7,26.3,38.6,46.8
			c4.4,16.9,1.7,32-8.3,45.2c-9.9,13.2-22.8,23.5-38.6,30.9c-15.8,7.4-32.7,10.3-50.7,8.8c-18-1.5-32.9-8.8-44.6-22
			c19.1-3.7,34-13,44.6-28.1C1738.5,549.1,1744.9,534.2,1747.1,519.5z M1245.8,547.9c-12.1,45.2-24.4,90-36.9,134.4
			c-12.5,44.5-24.2,85.9-35.3,124.5c-11,38.6-19.8,70-26.4,94.2c-19.1-2.2-36.7-5.7-52.9-10.5c-16.2-4.8-29.4-11.2-39.7-19.3
			c-10.3-8.1-17.3-18-20.9-29.8c-3.7-11.7-2.2-26.1,4.4-43c7.3-19.1,16.9-45.7,28.6-79.9c11.7-34.2,24.8-71.1,39.1-110.7
			c14.3-39.7,28.8-79.9,43.5-120.7c14.7-40.8,28.3-77.3,40.8-109.6c-55.1,11-101.4,26.3-138.8,45.7c-37.5,19.5-66.7,40.4-87.6,62.8
			c-20.9,22.4-34.2,44.5-39.7,66.1c-5.5,21.7-3.9,39.5,5,53.4c-32.3-2.9-58-9.5-77.1-19.8c-19.1-10.3-33.1-22-41.9-35.3
			c-8.8-13.2-12.7-27.2-11.6-41.9c1.1-14.7,6.1-27.5,14.9-38.6c18.4-22.8,48.3-45.9,89.8-69.4c41.5-23.5,91.3-43.5,149.3-60.1
			c58-16.5,122.3-27.2,192.8-32c70.5-4.8,144.3-0.2,221.5,13.8c37.5,8.1,63.5,17.6,78.2,28.6c14.7,11,23.1,22,25.3,33.1
			c-64.6-11-123.4-17.6-176.3-19.8c-52.9-2.2-101.4-0.7-145.4,4.4c12.5,8.1,20.7,17.3,24.8,27.5c4,10.3,5.3,19.8,3.9,28.6
			C1268.4,461.8,1257.9,502.7,1245.8,547.9z M2697.7,448.5c-126,3.8-227,107.2-227,234.2c0,129.8,104.5,234.3,234.3,234.3
			c127,0,230.4-101,234.2-227C2943.3,555.4,2832.3,444.4,2697.7,448.5z M2708.9,797.6c-73.2,0-135.9-44.8-161.5-108.2
			c39.6,33.6,96,54.6,158.5,54.6c67.5,0,127.9-24.5,167.6-62.9C2850.1,748.9,2785.2,797.6,2708.9,797.6z M2424,509.2
			c0.7-13.9-2.6-21.8-9.9-23.7c-7.4-1.8-16.4-0.2-27,5c-10.7,5.1-21.5,12.3-32.5,21.5c-11,9.2-19.1,17.5-24.2,24.8
			c-8.1,10.3-10.8,19.5-8.3,27.5c2.6,8.1,8.3,15.6,17.1,22.6c8.8,7,19.5,14,32,20.9c12.5,7,24.6,14.5,36.4,22.6
			c11.7,8.1,22,17.3,30.9,27.5c8.8,10.3,13.6,22,14.3,35.3c2.2,25.7-8.3,47.6-31.4,65.6c-23.1,18-56,27-98.6,27
			c-19.8,0-37.8-2-54-6.1c-16.2-4-29.7-9.9-40.8-17.6c-11-7.7-18.9-16.7-23.7-27c-4.8-10.3-5.3-20.9-1.7-32
			c2.9-11,9.7-20.2,20.4-27.5c10.6-7.3,22.8-11.9,36.4-13.8c13.6-1.8,27.5-0.6,41.9,3.9c14.3,4.4,26.6,12.9,36.9,25.3
			c-19.1,3.7-34.7,9.4-46.8,17.1c-12.1,7.7-16.4,17.1-12.7,28.1c2.9,8.1,7.9,14,14.9,17.6c7,3.7,13.4,5.5,19.3,5.5
			c12.5,0.7,23.1-1.8,32-7.7c8.8-5.9,15-12.1,18.7-18.7c7.3-9.5,8.4-18.7,3.3-27.5c-5.1-8.8-13.2-17.6-24.2-26.4
			c-11-8.8-24.1-17.8-39.1-27c-15.1-9.2-28.8-18.7-41.3-28.6c-12.5-9.9-22.4-20.4-29.7-31.4c-7.4-11-9.2-23.1-5.5-36.4
			c8.1-28.6,25.2-52,51.2-70c26.1-18,59.7-27.4,100.8-28.1c36.7-0.7,65,4.2,84.8,14.9c19.8,10.7,32.7,26.3,38.6,46.8
			c4.4,16.9,1.7,32-8.3,45.2c-9.9,13.2-22.8,23.5-38.6,30.9c-15.8,7.4-32.7,10.3-50.7,8.8c-18-1.5-32.9-8.8-44.6-22
			c19.1-3.7,34-13,44.6-28.1C2415.3,538.8,2421.8,523.9,2424,509.2z M1923.9,724.9c1.9,5.2,4.1,10.1,6.6,14.6
			c-5.9,5.9-11.8,11.5-17.8,16.9c-10.7,9.6-23,19.1-36.9,28.6c-7.4,5.9-16.2,9.2-26.4,9.9c-10.3,0.7-19.8-0.4-28.6-3.3
			c-8.8-2.9-16.3-7.7-22.6-14.3c-6.2-6.6-9-14.3-8.3-23.1c1.5-16.9,4-34.5,7.7-52.9c3.7-18.4,8.5-38.2,14.3-59.5
			c10.3-36,21.1-72.7,32.5-110.2c11.4-37.5,22.2-71.6,32.5-102.5h-7.7c-14.7,0-22.4-3.7-23.1-11c-0.7-7.3,8.4-11.4,27.5-12.1h11
			c6.6-20.6,13.2-38.2,19.8-52.9c3.7-8.8,10.3-14.7,19.8-17.6c9.5-2.9,19.1-4.2,28.6-3.9c9.5,0.4,17.8,2,24.8,5
			c7,2.9,10.1,5.9,9.4,8.8l-17.6,60.6h55.1c8.1-0.7,13.9,0,17.6,2.2c3.7,2.2,5.1,4.8,4.4,7.7c-0.7,2.9-3.3,5.7-7.7,8.3
			c-4.4,2.6-11,4.2-19.8,5h-56.2l-78.2,278.8c-5.1,20.6-4.8,30.5,1.1,29.8c5.9-0.7,15.2-8.1,28.1-22c1.8-1.9,3.8-3.3,6-4.3
			C1920.9,716,1922.3,720.5,1923.9,724.9z M2170.4,687.5c-16.2,14.7-32.5,27.4-49,38c-16.5,10.7-32,17.8-46.3,21.5
			c-14.3,3.7-26.8,3.1-37.5-1.7c-10.7-4.8-18.2-14.9-22.6-30.3c-4.4-16.9-3.7-38.2,2.2-63.9c20.6,5.1,43.5,4.6,68.9-1.7
			c25.3-6.2,48.7-16.3,70-30.3c21.3-13.9,38.7-30.3,52.3-49c13.6-18.7,18.9-37.6,16-56.7c-1.5-7.3-6.3-16.7-14.3-28.1
			c-8.1-11.4-24.6-18.9-49.6-22.6c-39.7-5.1-75.9,0.7-108.5,17.6c-32.7,16.9-59.7,39.1-81,66.7c-21.3,27.5-36,57.7-44.1,90.4
			c-8.1,32.7-7.3,61.9,2.2,87.6c7.3,19.8,18.4,34.5,33.1,44.1c14.7,9.6,29.9,15.6,45.7,18.2c15.8,2.6,31,2.8,45.7,0.6
			c14.7-2.2,26.1-5.5,34.2-9.9c33.1-15.4,62.4-34.5,88.2-57.3C2201.6,697.8,2185.1,674.3,2170.4,687.5z M2041.5,583.4
			c7.3-15.8,15.8-30.3,25.3-43.5c9.5-13.2,19.5-24.6,29.7-34.2c10.3-9.5,20.9-16.1,32-19.8c11.7-3.7,18.9-2.4,21.5,3.9
			c2.6,6.2,3.9,11.9,3.9,17.1c0.7,11-2.6,22.8-9.9,35.3c-7.3,12.5-17.5,24.4-30.3,35.8c-12.9,11.4-27.4,21.9-43.5,31.4
			c-16.2,9.6-32,16.5-47.4,20.9C2027.9,614.8,2034.1,599.2,2041.5,583.4z"/>
	</g>
</g>
</svg>
