<?xml version="1.0" encoding="utf-8"?>
<!-- Generator: Adobe Illustrator 24.1.1, SVG Export Plug-In . SVG Version: 6.00 Build 0)  -->
<svg version="1.1" id="Layer_2" xmlns="http://www.w3.org/2000/svg" xmlns:xlink="http://www.w3.org/1999/xlink" x="0px" y="0px"
	 viewBox="0 0 500 500" style="enable-background:new 0 0 500 500;" xml:space="preserve">
<style type="text/css">
	.st0{fill:#F02710;}
	.st1{fill:#840C03;}
</style>
<g>
	<path d="M242.4,4.4C111.4,8.4,6.5,115.9,6.5,247.9c0,134.9,108.6,243.5,243.5,243.5c132,0,239.4-105,243.4-235.9
		C497.6,115.5,382.3,0.2,242.4,4.4z M253.9,367.2c-76.1,0-141.2-46.6-167.8-112.5c41.2,34.9,99.7,56.8,164.7,56.8
		c70.2,0,132.8-25.4,174.2-65.4C400.8,316.5,333.3,367.2,253.9,367.2z"/>
	<path class="st0" d="M417.2,219.6c-12.2-15.5-29.7-18.9-44.7-4c-13.3,13.3-20.9,29.9-28.6,46.5c-8.9,19.1-15.8,38.9-25.1,57.8
		c-8.2,16.8-18.5,31.8-32.6,44.2c7.3-1.3,14.7-3.1,22-5.1c33.8-11.2,49.6-30.5,71.3-55.8c-6.2,12.3-9.9,18.6-19.6,28.5
		c-6.3,6.5-15.5,12.8-15.5,12.8s10.6-1.8,17.4-3.7c12.9-3.5,22.5-6.8,32.4-15.3c15.3-13.1,26.9-29.1,32.3-48.8
		C431.9,256.5,430.6,236.7,417.2,219.6z"/>
	<path class="st1" d="M308.1,359c10.4-3,20.3-6.6,28.8-10.4c1.4-0.7,2.8-1.4,4-2.3l0,0c1.1-0.7,2.2-1.3,3.4-1.9l0,0
		c0,0,9.6-6.3,15.8-12.8c12.1-13,13-15.8,18.1-26.1c0.2-0.4-0.3-0.7-0.6-0.4C356.9,329.6,341,348.2,308.1,359z"/>
</g>
</svg>
